<?xml version="1.0" encoding="UTF-8"?>
<!DOCTYPE svg PUBLIC "-//W3C//DTD SVG 1.1//EN" "http://www.w3.org/Graphics/SVG/1.1/DTD/svg11.dtd">
<!-- Creator: CorelDRAW -->
<svg xmlns="http://www.w3.org/2000/svg" xml:space="preserve" width="4.17106in" height="3.2396in" style="shape-rendering:geometricPrecision; text-rendering:geometricPrecision; image-rendering:optimizeQuality; fill-rule:evenodd; clip-rule:evenodd"
viewBox="0 0 4.17107 3.2396"
 xmlns:xlink="http://www.w3.org/1999/xlink">
 <defs>
  <style type="text/css">
   <![CDATA[
    .str6 {stroke:#2D190D;stroke-width:0.00369292;stroke-linecap:round}
    .str3 {stroke:#342411;stroke-width:0.00369292;stroke-linecap:round}
    .str4 {stroke:#362812;stroke-width:0.00369292;stroke-linecap:round}
    .str5 {stroke:#482B11;stroke-width:0.00369292;stroke-linecap:round}
    .str1 {stroke:#FF8155;stroke-width:0.00369292;stroke-linecap:round}
    .str7 {stroke:#523912;stroke-width:0.00622048}
    .str0 {stroke:#7A5696;stroke-width:0.00622048}
    .str2 {stroke:#936DBF;stroke-width:0.00622048}
    .str9 {stroke:#CCE5F9;stroke-width:0.00622048}
    .str8 {stroke:#F9AAAA;stroke-width:0.00622048}
    .str10 {stroke:#F9CD53;stroke-width:0.00622048}
    .fil1 {fill:none}
    .fil8 {fill:#231C0E}
    .fil29 {fill:#241D2D}
    .fil34 {fill:#251A0E}
    .fil7 {fill:#26140B}
    .fil30 {fill:#281B0D}
    .fil4 {fill:#293079}
    .fil26 {fill:#300D0D}
    .fil22 {fill:#301011}
    .fil35 {fill:#40150A}
    .fil13 {fill:#5D3876}
    .fil15 {fill:#765827}
    .fil28 {fill:#7F7F7E}
    .fil19 {fill:#8052AD}
    .fil44 {fill:#8AAF04}
    .fil37 {fill:#8E39A0}
    .fil43 {fill:#98CB04}
    .fil21 {fill:#C7A9EA}
    .fil11 {fill:#C8AE7D}
    .fil6 {fill:#CCE5F9}
    .fil38 {fill:#CFE9F9}
    .fil27 {fill:#D1D1D3}
    .fil33 {fill:#E5E5E5}
    .fil31 {fill:#E5F1DB}
    .fil39 {fill:#F3FAFF}
    .fil17 {fill:#F5BF02}
    .fil40 {fill:#FC27A5}
    .fil12 {fill:#FCD4D4}
    .fil0 {fill:#FDD9CB}
    .fil41 {fill:#FEC200}
    .fil5 {fill:#FEEEF1}
    .fil9 {fill:#FFB583}
    .fil24 {fill:white}
    .fil36 {fill:#523912;fill-rule:nonzero}
    .fil25 {fill:#7A5696;fill-rule:nonzero}
    .fil2 {fill:white;fill-rule:nonzero}
    .fil20 {fill:#5D3876;fill-opacity:0.090196}
    .fil18 {fill:#765827;fill-opacity:0.250980}
    .fil14 {fill:#5D3876;fill-opacity:0.301961}
    .fil16 {fill:#765827;fill-opacity:0.450980}
    .fil3 {fill:#FDD9CB;fill-opacity:0.450980}
    .fil42 {fill:white;fill-opacity:0.450980}
    .fil23 {fill:#190708;fill-opacity:0.611765}
    .fil32 {fill:#3C2A11;fill-opacity:0.611765}
    .fil10 {fill:#FFB583;fill-opacity:0.611765}
   ]]>
  </style>
 </defs>
 <g id="Layer_x0020_1">
  <metadata id="CorelCorpID_0Corel-Layer"/>
  <g id="_257334512">
   <path id="_257334176" class="fil0" d="M4.17108 1.52032l0 0.896486 -1.24027 3.93702e-006c-0.0170473,0 -0.0334134,-0.00211418 -0.0491025,-0.00618505 -0.086138,-0.0217953 -0.149721,-0.0997837 -0.149721,-0.192705l0 -0.498706c0,-0.10989 0.0890002,-0.19889 0.198894,-0.19889l1.2402 -3.93702e-006z"/>
   <path id="_257335664" class="fil0" d="M2.41816 2.28648c0.0711261,-0.0332599 0.342426,-0.217819 0.346123,-0.192178 0.00369292,0.0257166 0.133347,0.319119 0.133347,0.319119l0.0592836 0.587855 -0.333977 -0.106579 -0.204776 -0.608218z"/>
   <polygon id="_257336960" class="fil0" points="4.17108,2.41681 4.17108,2.51079 2.80832,2.51079 2.88171,2.41063 3.61204,2.4141 "/>
   <path id="_257336816" class="fil0" d="M4.17108 2.51079l0 0.333977 -1.2104 0c-0.0842521,0 -0.152359,-0.0681852 -0.152359,-0.15228l0 -0.0294174c0,-0.0840986 0.0681812,-0.152359 0.152359,-0.152359l1.2104 0 0 7.87403e-005z"/>
   <line id="_257337368" class="fil1" x1="2.91769" y1="2.83865" x2="4.03547" y2= "2.83865" />
   <polygon id="_257337704" class="fil2" points="2.91769,2.83488 4.03547,2.83488 4.03547,2.84242 2.91769,2.84242 "/>
   <path id="_257337392" class="fil0" d="M2.80832 2.60431l0 0.0316772 0.336694 -0.125201 -0.243241 0c-0.0515946,0 -0.0934529,0.0418583 -0.0934529,0.0935238z"/>
   <path id="_257337416" class="fil0" d="M4.17108 2.84477l0 0.334127 -1.2104 0c-0.0842521,0 -0.152359,-0.068256 -0.152359,-0.152355l0 -0.0294174c0,-0.0840986 0.0681812,-0.152355 0.152359,-0.152355l1.2104 0z"/>
   <path id="_257337488" class="fil3" d="M3.62622 3.17889l-0.665454 0c-0.0842521,0 -0.152362,-0.0682521 -0.152362,-0.152355l0 -0.0294213c0,-0.0840946 0.0681891,-0.152347 0.152362,-0.152347 -0.0842521,0 -0.152362,-0.0681891 -0.152362,-0.15228l0 -0.0294213c0,-0.0841065 0.0681891,-0.152359 0.152362,-0.152359l-0.152362 0 0.073386 -0.100162c-0.0861301,-0.0217914 -0.149713,-0.0997758 -0.149713,-0.192705l0 -0.498702c0,-0.109894 0.0890041,-0.198886 0.198886,-0.198886l0.166914 -1.1811e-005c0.00603544,0.258709 0.438666,0.800856 0.51432,0.893769 0.00067323,0.00097638 0.0014252,0.00188189 0.00211024,0.0027126 0.0058071,0.00716143 0.0090512,0.010937 0.0090512,0.010937l0 0.0830474c0,0 -0.0395237,0.122488 0,0.327953 0,0 -0.000594489,0.00209843 -0.00158662,0.00602363 -0.00843702,0.0343938 -0.0472088,0.209233 0.00158662,0.326068 0.000901577,0.00277953 0.00203937,0.00557481 0.00286221,0.00813781z"/>
   <path id="_257337728" class="fil0" d="M2.41816 2.29017c0.124827,-0.0626773 0.213225,-0.113138 0.277788,0 0.0645631,0.113138 0.217748,0.762234 0.165705,0.845502 -0.0520434,0.0832679 -0.269414,0.128748 -0.297473,0.050382 -0.0280552,-0.0783663 -0.293851,-0.821667 -0.14602,-0.895884z"/>
   <path id="_257337872" class="fil4" d="M1.82178 3.21577l-1.22865 0c-0.065319,0 -0.118264,-0.0529489 -0.118264,-0.118264l0 -2.80923c0,-0.065319 0.0529489,-0.118264 0.118264,-0.118264l1.22865 0c0.065319,0 0.11826,0.0529489 0.11826,0.118264l0 2.8093c0,0.0652442 -0.052941,0.118193 -0.11826,0.118193z"/>
   <path id="_257337968" class="fil5" d="M1.96252 3.21577l-1.22865 0c-0.065319,0 -0.118264,-0.0529489 -0.118264,-0.118264l0 -2.80923c0,-0.065319 0.0529489,-0.118264 0.118264,-0.118264l1.22865 0c0.065319,0 0.11826,0.0529489 0.11826,0.118264l0 2.8093c0,0.0652442 -0.052941,0.118193 -0.11826,0.118193z"/>
   <rect id="_257338496" class="fil6" x="0.704835" y="0.326371" width="1.2868" height="2.59254"/>
   <path id="_257338448" class="fil7" d="M1.50335 3.04056c0,0.0380906 -0.0308505,0.0689371 -0.0689371,0.0689371 -0.0380867,0 -0.0689371,-0.0308465 -0.0689371,-0.0689371 0,-0.0380867 0.0308505,-0.0689332 0.0689371,-0.0689332 0.0380867,0 0.0689371,0.0308465 0.0689371,0.0689332z"/>
   <path id="_257338328" class="fil8" d="M1.5007 0.279221l-0.181319 0c-0.0102559,0 -0.0184764,-0.00829135 -0.0184764,-0.0184764l0 0c0,-0.0102559 0.00829135,-0.0184803 0.0184764,-0.0184803l0.181319 0c0.0102559,0 0.0184803,0.00829529 0.0184803,0.0184803l0 0c0,0.0101851 -0.00829923,0.0184764 -0.0184803,0.0184764z"/>
   <path id="_257338256" class="fil9" d="M2.36717 1.31374l-0.00610631 0.0147087 -0.0468426 0.113736c-0.00452363,0.00211418 -0.0184016,0.0148583 -0.0369568,0.0322796 -0.0479686,0.0441969 -0.12754,0.118264 -0.161855,0.118264 -0.0476694,0 -0.0679608,-0.150548 -0.0679608,-0.150548l0.106953 -0.0723308 0.0829687 -0.0561103 0.129799 0z"/>
   <path id="_257338064" class="fil10" d="M2.36106 1.32844l-0.0468465 0.11374c-0.00451969,0.00211811 -0.0184016,0.0148622 -0.0369528,0.0322835 -0.0252638,-0.0235394 -0.0719568,-0.072634 -0.122941,-0.104622l0.0829687 -0.0561064 0.110563 0c0.00415749,0.00459843 0.00867718,0.00957876 0.0132087,0.0147048z"/>
   <path id="_257338136" class="fil11" d="M1.26877 1.82533c-0.0427639,0.0506103 -0.506095,0.0380867 -0.519218,0 -0.0130473,-0.0380867 0.0197599,-0.0999372 0.00987797,-0.198437 -0.00987797,-0.0985789 -0.0520434,-0.410607 -0.0365788,-0.45043 0.0106339,-0.0270788 0.0674293,-0.0675041 0.135685,-0.0921695 0.0319804,-0.0116929 0.0665986,-0.0198386 0.100087,-0.0215709 0.079197,-0.00407087 0.171965,-0.023 0.227855,0.00746852 0.0222481,0.0120709 0.038693,0.0319056 0.0461576,0.0636576 0.0263229,0.111402 -0.006563,0.273036 0.00331497,0.353209 0.00981892,0.0800986 0.0754332,0.287737 0.032819,0.338272z"/>
   <path id="_257338760" class="fil12" d="M0.913828 1.06861c-0.0106339,0.0734647 0.11374,0.143 0.11374,0.143l0.0316024 -0.0506103 0.0695395 0.0252678c0,0 0.0185552,-0.0699214 -0.0275315,-0.116154 -0.0462324,-0.0461576 -0.187351,-0.00150394 -0.187351,-0.00150394z"/>
   <path id="_257338856" class="fil11" d="M1.23257 1.13378c0.0494765,0.0797206 0.127315,0.284422 0.136969,0.308406 0.0097323,0.024063 0.0810041,-0.0721064 0.0972207,-0.0758742 0.0162166,-0.00377166 0,0.274918 0,0.274918 0,0 -0.113512,0.0469135 -0.164347,-0.0129725 -0.0508347,-0.0598859 -0.124071,-0.172264 -0.124071,-0.172264l0.0542284 -0.322213z"/>
   <path id="_257339528" class="fil13" d="M2.03131 3.14465c-0.0491025,0.0315237 -0.228461,0.10589 -0.248071,0.0935986 -0.0130473,-0.00814568 -0.0346182,-0.0572481 -0.0548347,-0.117284 -0.0103307,-0.0305473 -0.0202874,-0.0640356 -0.0286615,-0.0963151 0,0 0.0417087,-0.186674 0.0932994,-0.0638111 0.0150079,0.0356733 0.0312245,0.0597363 0.0488741,0.0759529 0.0429174,0.0397481 0.0939766,0.0328071 0.154918,0.0345394 0.0859884,0.00242126 0.083575,0.0416379 0.0344764,0.073319z"/>
   <path id="_257339384" class="fil14" d="M1.84192 3.03671c-0.0428387,0.0239882 -0.086138,0.0586103 -0.11352,0.0842521 -0.0103268,-0.0305434 -0.0202874,-0.0640316 -0.0286575,-0.0963151 0,0 0.0417127,-0.186666 0.0933033,-0.0638072 0.0150748,0.0356064 0.0312953,0.0597324 0.0488741,0.0758702z"/>
   <path id="_257339168" class="fil15" d="M1.64438 3.03951c-0.0402009,0.0129725 -0.0638111,-0.100536 -0.114418,-0.201835 -0.0322008,-0.0644883 -0.19052,-0.313914 -0.247008,-0.413772 -0.0564174,-0.0997837 -0.162087,-0.245733 -0.162087,-0.245733 0,0 0,0.32719 -0.0402048,0.387528 -0.00354331,0.00535434 -0.00950002,0.0105591 -0.0173465,0.0155394 -0.079949,0.0517403 -0.358414,0.085075 -0.358414,0.085075l0 -0.24241c0,0 0.119016,-0.0544568 0.119016,-0.079575 0,-0.0162166 -0.0314489,-0.187504 -0.0428426,-0.341367 -0.00625985,-0.0843978 -0.00655907,-0.163595 0.00761812,-0.2093 0.00482678,-0.0154646 0.0150079,-0.027004 0.0292638,-0.0352245 0.0574725,-0.0335631 0.180713,-0.0144803 0.279898,0.00935435 0.0807797,0.0194607 0.145567,0.0420867 0.145567,0.0420867 0.0189331,0.0239095 0.0394489,0.054756 0.0606418,0.0901301 0.100394,0.167516 0.218276,0.435269 0.284729,0.530304 0.0805513,0.11517 0.2578,0.455406 0.287965,0.485576 0.0302481,0.0303268 -0.192178,0.110654 -0.232378,0.123622z"/>
   <path id="_257338952" class="fil16" d="M1.30414 1.9c-0.185839,0.101748 -0.417091,0.110114 -0.522989,0.102882 -0.00625592,-0.0844017 -0.00655907,-0.163595 0.007626,-0.2093 0.00481891,-0.0154685 0.015004,-0.0270001 0.029256,-0.0352245l0.279902 0.00935041c0.0807836,0.0194567 0.145559,0.0420906 0.145559,0.0420906 0.0190118,0.0239804 0.0394528,0.0548269 0.0606458,0.090201z"/>
   <path id="_257339432" class="fil17" d="M3.04093 3.18108c-0.0058819,0.0292638 -0.123091,0.0410355 -0.187504,0.0380906 -0.0644883,-0.00301575 -0.0966892,-0.00882679 -0.0469095,-0.0616222 0.0243623,-0.0257166 0.0494017,-0.0473662 0.0658426,-0.0736891 0.0173465,-0.0274528 0.0252638,-0.0600355 0.0132756,-0.108008 -0.023378,-0.0936734 0.131918,0.0205158 0.131918,0.0205158 0.00686222,0.0364331 0.0158386,0.0842521 0.0208937,0.123095 0.00331497,0.0269252 0.00489371,0.0496261 0.00248426,0.0616182z"/>
   <path id="_257339072" class="fil17" d="M2.40767 3.19262c-0.0215709,0.0179489 -0.284044,0.0432206 -0.32719,0.027004 -0.0390709,-0.0146339 0.0604135,-0.0852285 0.114343,-0.127847 0.00558662,-0.00452363 0.0107126,-0.00867718 0.0151654,-0.0124449 0.0466851,-0.0398268 0.0132756,-0.123996 0.0132756,-0.123996l0.155674 0.0431418c0.0129685,0.0287363 0.0236063,0.0626773 0.0303938,0.0942049 0.0100276,0.0472914 0.011311,0.089075 -0.00166142,0.0999372z"/>
   <path id="_257339288" class="fil18" d="M2.40933 3.09261c-0.0580001,0.0112323 -0.137189,0.0155315 -0.214512,-0.000913388 0.00558662,-0.00451969 0.0107205,-0.00866931 0.0151693,-0.0124449 0.0466851,-0.0398268 0.0132717,-0.123996 0.0132717,-0.123996l0.15567 0.0431497c0.0129764,0.0287402 0.0236142,0.0626773 0.0304016,0.0942049z"/>
   <path id="_257340080" class="fil18" d="M2.87235 3.08385c0.0173544,-0.0274528 0.0252678,-0.0600355 0.0132874,-0.108004 -0.0233819,-0.0936734 0.13191,0.0205197 0.13191,0.0205197 0.00687009,0.0364292 0.0158386,0.0842521 0.0209016,0.123091 -0.044878,-0.000311024 -0.100772,-0.0107205 -0.166099,-0.0356064z"/>
   <path id="_257340128" class="fil13" d="M3.0628 3.01288c-0.0161418,0.0274528 -0.198138,0.0092008 -0.207646,0 -0.00935435,-0.009126 -0.139382,-0.556324 -0.156579,-0.634391 -0.0171929,-0.0779135 -0.140516,-0.379379 -0.140516,-0.379379 0,0 -0.141571,0.305997 -0.159823,0.347099 -0.0182559,0.0411064 -0.00452363,0.182674 0,0.287666 0.00452363,0.104992 0.0228544,0.219256 0.0228544,0.283142 0,0.0639568 0.00437402,0.0973742 -0.0321339,0.110347 -0.0363544,0.0129685 -0.187126,0.0190827 -0.200851,0 -0.0136536,-0.0190867 -0.0730119,-0.612741 -0.0822128,-0.704009 -0.00618505,-0.0626733 0.0626025,-0.294682 0.13154,-0.450654 0.0316024,-0.0716497 0.0632796,-0.12724 0.0877206,-0.143004 0.0776852,-0.0503072 0.53008,0 0.53008,0 0.00995277,0.0573229 0.0212678,0.13139 0.0328071,0.207945 0.0249646,0.166914 0.0503111,0.345064 0.0628308,0.385796 0.018252,0.0593584 0.0639568,0.410981 0.0776852,0.470414 0.013504,0.0592796 0.0503072,0.19165 0.0342442,0.219028z"/>
   <polyline id="_257340296" class="fil1 str0" points="2.51424,1.77835 2.51424,1.9304 2.54804,1.97 2.54804,1.76138 "/>
   <path id="_257340176" class="fil14" d="M2.88797 1.93764c-0.18878,0.00369292 -0.481883,-0.00241339 -0.650529,-0.0648584 0.0316064,-0.0716616 0.0632757,-0.127244 0.0877128,-0.143008 0.0777009,-0.0503072 0.530092,0 0.530092,0 0.00987403,0.0572442 0.0211811,0.13139 0.0327245,0.207867z"/>
   <path id="_257340224" class="fil19" d="M2.86761 1.80475c-0.00935435,0.037256 -0.585442,0.01863 -0.591777,0 -0.00400001,-0.0119921 0.0113858,-0.151449 0.0260945,-0.268965 0.00814568,-0.0644883 0.016063,-0.122414 0.020437,-0.148807l-0.0386142 -0.027756 -0.060567 -0.0435198c0,0 0.0966931,-0.14504 0.120752,-0.179583 0.0446497,-0.0641891 0.0805553,-0.114721 0.182752,-0.127087 0.102201,-0.0123701 0.319044,-0.0278308 0.36867,0 0.0494804,0.0278308 0.136296,0.266394 0.151756,0.306674 0.0155394,0.0403505 0.0155394,0.0403505 0.0155394,0.0403505l-0.195122 0.0278308 -0.0124449 -0.0494765c0,0 -0.0340158,0.0835671 -0.0371103,0.123843 -0.00308662,0.0402009 0.0589096,0.309386 0.049634,0.346497z"/>
   <path id="_257339792" class="fil20" d="M2.69322 1.35922l-0.0209646 0.0829647 -0.370253 0.0935986c0.00814568,-0.0644844 0.0160551,-0.122418 0.020437,-0.148811l-0.0386182 -0.027752 0.409398 0z"/>
   <path id="_257339912" class="fil21" d="M2.67573 0.998616c0.024063,0.0323583 -0.00882285,0.120453 -0.00882285,0.120453l-0.0807797 -0.0488741 -0.088323 0.0488741c0,0 -0.0162166,-0.0690119 0.0127481,-0.109815 0,-3.93702e-006 0.116299,-0.029193 0.165177,-0.0106378z"/>
   <g>
    <path id="_257340032" class="fil22" d="M2.39847 0.82295c-0.0595119,-0.0344686 -0.017878,-0.0937521 -0.00648426,-0.0954844 0,0 -0.0234567,-0.0523426 0.0236063,-0.0967679 0.047067,-0.0444253 0.0690907,-0.011315 0.0650159,0.00784647 0,0 0.0515119,-0.0418583 0.154465,-0.00784647 0.103028,0.0340197 0.107551,0.158544 0.077382,0.22876 -0.0301693,0.0702993 -0.108607,0.11902 -0.108607,0.11902l-0.205378 -0.155528z"/>
    <g>
     <g>
      <path id="_257340512" class="fil9" d="M2.5954 1.05255l0 0c0.0236103,-0.00354725 0.0398268,-0.0254961 0.0362796,-0.0491025l-0.0149331 -0.0995632 -0.0853821 0.0128229 0.0149331 0.0995632c0.00354725,0.0235315 0.0254922,0.0397481 0.0491025,0.0362796z"/>
      <path id="_257340392" class="fil10" d="M2.58944 1.0131l0 0c0.0236142,-0.00354725 0.0398308,-0.0254922 0.0362875,-0.0491064l-0.014937 -0.0995592 -0.0853821 0.0128268 0.014937 0.0995592c0.00354331,0.0235315 0.025567,0.0398229 0.0490946,0.0362796z"/>
      <path id="_257340848" class="fil9" d="M2.39847 0.848446c0.0143307,0.10876 0.0455552,0.167819 0.13554,0.153335 0.0899805,-0.0144803 0.11276,-0.0869687 0.115851,-0.106272 0.0031693,-0.0193071 -0.0196063,-0.122036 -0.0196063,-0.122036 0,0 -0.116154,-0.0267008 -0.120079,-0.029189 -0.00392127,-0.00249213 -0.105516,0.00558269 -0.105516,0.00558269l-0.00618899 0.0985789z"/>
      <path id="_257340680" class="fil22" d="M2.57934 0.806289c0.0224764,0.0238308 0.0220237,0.0653151 0.0333386,0.0630552 0.011315,-0.00233859 0.0389174,-0.0593584 0.0389174,-0.0593584l-0.072256 -0.00369686z"/>
      <g>
       <path id="_257341064" class="fil9" d="M2.63032 0.851765c0.00693702,-0.0314489 0.0362009,-0.0398977 0.0535473,-0.0214922 0.024063,0.0255709 -0.00362205,0.0675789 -0.0238308,0.0782127 -0.0202126,0.0106339 -0.0386142,-0.0165158 -0.0297166,-0.0567206z"/>
       <path id="_257340968" class="fil1 str1" d="M2.63523 0.869415c0.0131969,-0.0285867 0.0309213,-0.0306221 0.0391418,-0.0212717 0.00822049,0.00935435 -0.00226378,0.0196103 -0.00226378,0.0196103"/>
       <path id="_257341664" class="fil1 str1" d="M2.6568 0.844529c0.0162914,-0.00287008 0.016441,0.0315237 -0.00158662,0.0451773 -0.0180237,0.0136536 -0.0159134,-0.00731497 -0.0159134,-0.00731497"/>
       <path id="_257341280" class="fil1 str1" d="M2.64729 0.851163c0.0122166,0.00112992 0.0175709,0.0247363 0.0154607,0.0310001"/>
      </g>
      <path id="_257340752" class="fil22" d="M2.52141 0.796332c0,0 0.0716497,0.0491733 0.131689,0.0322796 0.0273819,-0.00769293 0.0327363,-0.0269252 0.0238347,-0.0481969 -0.0106339,-0.0252638 -0.0414095,-0.0534725 -0.0793466,-0.0685592 -0.0611655,-0.0243623 -0.166233,-0.0183229 -0.196855,0.016441 -0.00430316,0.00490158 -0.00716537,0.0104095 -0.00822442,0.0165197 -0.00987797,0.0600355 0.108232,0.0650159 0.128902,0.0515158z"/>
      <path id="_257341592" class="fil22" d="M2.44969 0.816317c-0.0133504,-0.00241339 -0.0262481,0.00527954 -0.0269252,0.0125236 -0.000755907,0.00731104 0.0497009,-0.00837403 0.0269252,-0.0125236z"/>
      <path id="_257341808" class="fil22" d="M2.50074 0.810887c0.0147087,-0.0084449 0.0334883,0.00294095 0.037256,0.0106339 0.00377166,0.00769293 -0.0601064,0.00249213 -0.037256,-0.0106339z"/>
      <path id="_257341640" class="fil22" d="M2.50278 0.858706c-0.000299213,0.00686222 0.00211418,0.0125236 0.00520867,0.0126693 0.0031693,0.000153544 0.00596064,-0.00535434 0.00618505,-0.0122166 0.000299213,-0.00686222 -0.00211418,-0.0125236 -0.00520867,-0.0126693 -0.0031693,-0.000153544 -0.00595277,0.00535434 -0.00618505,0.0122166z"/>
      <path id="_257341784" class="fil22" d="M2.43792 0.864214c0.00150788,0.00671261 0.0052756,0.0115394 0.00837009,0.0108622 0.00309056,-0.000677167 0.00429922,-0.00671655 0.00279134,-0.0134252 -0.00150788,-0.00671655 -0.00527954,-0.0115394 -0.00837009,-0.0108622 -0.00301575,0.000748033 -0.00429922,0.00670867 -0.00279134,0.0134252z"/>
     </g>
     <path id="_257340560" class="fil23" d="M2.52141 0.796332c0,0 0.0716497,0.0491654 0.131693,0.0322717 0.0273701,-0.00768112 0.0327323,-0.0269174 0.0238308,-0.0481812 -0.00452363,0.00866931 -0.012,0.0417127 -0.0521261,0.0384568 -0.05513,-0.00443702 -0.097138,-0.0696852 -0.097138,-0.0696852 0,0 -0.0863584,0.0365709 -0.126866,-0.0208937 -0.00429922,0.00489371 -0.00715356,0.0104055 -0.00822442,0.0165118 -0.0099449,0.0600355 0.108166,0.0650277 0.128831,0.0515198z"/>
    </g>
    <path id="_257340488" class="fil1 str1" d="M2.46439 0.876809c0.00837009,0.0193071 -0.00822442,0.0293386 -0.00354725,0.0386182 0.00475198,0.00935041 0.0199095,0.00399607 0.0199095,0.00399607"/>
    <path id="_257342288" class="fil24" d="M2.48943 0.942427c0.0202874,-0.00558269 0.0419332,-0.0257166 0.0419332,-0.0257166 0,0 0.0104095,0.0318268 -0.0125197,0.043819 -0.0229292,0.0119921 -0.0294134,-0.0181024 -0.0294134,-0.0181024z"/>
   </g>
   <path id="_257340008" class="fil25" d="M2.55167 1.97096c-0.0300119,0.114201 -0.180827,0.350985 -0.192181,0.368713 0.0027441,0.0287087 0.0539253,0.567974 0.033193,0.688399l-0.00742521 -0.00127166c0.0211142,-0.122622 -0.0332166,-0.686076 -0.0333701,-0.687702l0.000578741 -0.00237008c0.000460631,-0.000716537 0.161087,-0.250296 0.191933,-0.36769l0.00727167 0.00192126z"/>
   <g>
    <path id="_257342504" class="fil22" d="M1.2196 0.913163c0.0595119,-0.0344686 0.017878,-0.0937521 0.00648426,-0.0954844 0,0 -0.0208937,0.0141024 -0.0679568,-0.030319 -0.0470631,-0.0444253 -0.0247402,-0.07776 -0.0207402,-0.0586025 0,0 -0.0515119,-0.0418583 -0.154465,-0.00784647 -0.103032,0.0340158 -0.107555,0.15854 -0.077386,0.22876 0.0301733,0.0702954 0.10861,0.119016 0.10861,0.119016l0.205453 -0.155524z"/>
    <g>
     <g>
      <path id="_257342096" class="fil9" d="M1.02274 1.14268l0 0c-0.0236063,-0.00354725 -0.0398229,-0.0254961 -0.0362796,-0.0491025l0.0149331 -0.0995632 0.0853821 0.0128229 -0.0149331 0.0995632c-0.00354331,0.0235355 -0.0255709,0.0398229 -0.0491025,0.0362796z"/>
      <path id="_257342312" class="fil10" d="M1.02862 1.10323l0 0c-0.0236142,-0.00354331 -0.0398268,-0.0255 -0.0362717,-0.0490946l0.0149252 -0.0995671 0.0853781 0.0128268 -0.0149252 0.0995592c-0.00355512,0.0236024 -0.0254922,0.039819 -0.0491064,0.0362757z"/>
      <path id="_257342432" class="fil9" d="M1.2196 0.938581c-0.0144095,0.10876 -0.0455591,0.167819 -0.13554,0.153335 -0.0899805,-0.0144843 -0.11276,-0.0869647 -0.115851,-0.106272 -0.0031693,-0.0193071 0.0196063,-0.122036 0.0196063,-0.122036 0,0 0.116154,-0.0267008 0.120079,-0.029189 0.00392127,-0.00249213 0.105516,0.00558269 0.105516,0.00558269l0.00618899 0.0985789z"/>
      <path id="_257342600" class="fil22" d="M1.03873 0.896494c-0.0224764,0.0238308 -0.0220237,0.065319 -0.0333386,0.0630552 -0.011315,-0.00233859 -0.0389174,-0.0593584 -0.0389174,-0.0593584l0.072256 -0.00369686z"/>
      <g>
       <path id="_257342840" class="fil9" d="M0.987746 0.941974c-0.00693702,-0.0314489 -0.0362009,-0.0399017 -0.0535473,-0.0214961 -0.024063,0.0255709 0.00362205,0.0675828 0.0238308,0.0782127 0.0202126,0.0105591 0.0386182,-0.0165906 0.0297166,-0.0567166z"/>
       <path id="_257342648" class="fil1 str1" d="M0.982919 0.95962c-0.0132008,-0.0285827 -0.0309253,-0.0306221 -0.0391457,-0.0212678 -0.00822049,0.00935435 0.00226378,0.0196103 0.00226378,0.0196103"/>
       <path id="_257343008" class="fil1 str1" d="M0.96127 0.934659c-0.0162914,-0.00287008 -0.016441,0.0315237 0.00158662,0.0451773 0.0180237,0.0136536 0.0159134,-0.00731497 0.0159134,-0.00731497"/>
       <path id="_257342744" class="fil1 str1" d="M0.970848 0.941297c-0.0122166,0.00112992 -0.0175709,0.0247402 -0.0154607,0.0310001"/>
      </g>
      <path id="_257342816" class="fil22" d="M1.09666 0.886537c0,0 -0.0716497,0.0491733 -0.131693,0.0322796 -0.027378,-0.00769293 -0.0327323,-0.0269252 -0.0238308,-0.048193 0.0106339,-0.0252638 0.0414095,-0.0534765 0.0793427,-0.0685592 0.0611694,-0.0243623 0.166237,-0.0183268 0.196859,0.016441 0.00429922,0.00490158 0.00716537,0.0104055 0.00822442,0.0165158 0.00995277,0.0599647 -0.108162,0.0649411 -0.128902,0.0515158z"/>
      <path id="_257342984" class="fil22" d="M1.16838 0.906525c0.0133465,-0.00241339 0.0262481,0.00527954 0.0269252,0.0125236 0.000755907,0.00731104 -0.0497048,-0.00837797 -0.0269252,-0.0125236z"/>
      <path id="_257343296" class="fil22" d="M1.11732 0.901017c-0.0147087,-0.00844883 -0.0334883,0.00294095 -0.037256,0.0106339 -0.00370079,0.00769686 0.0601064,0.00248819 0.037256,-0.0106339z"/>
      <path id="_257343368" class="fil22" d="M1.11529 0.948836c0.000299213,0.00686222 -0.00211418,0.0125236 -0.00520867,0.0126693 -0.0031693,0.000153544 -0.00596064,-0.00535434 -0.00618505,-0.0122166 -0.000299213,-0.00686222 0.00211418,-0.0125236 0.00520867,-0.0126693 0.00316536,-7.87403e-005 0.00595277,0.00535434 0.00618505,0.0122166z"/>
      <path id="_257343656" class="fil22" d="M1.18015 0.954419c-0.00150788,0.00671655 -0.0052756,0.0115394 -0.00837009,0.0108622 -0.00309056,-0.000677167 -0.00429922,-0.00671261 -0.00279134,-0.0134252 0.00150788,-0.00671261 0.00527954,-0.0115394 0.00837009,-0.0108622 0.00309449,0.000677167 0.00429922,0.00671261 0.00279134,0.0134252z"/>
     </g>
     <path id="_257342072" class="fil23" d="M1.09666 0.886537c0,0 -0.0716655,0.0491773 -0.131697,0.0322835 -0.0273819,-0.00769686 -0.0327402,-0.0269292 -0.0238386,-0.0482009 0.0045315,0.00868112 0.0119921,0.0417127 0.0521182,0.0384686 0.055134,-0.00444883 0.0971498,-0.069697 0.0971498,-0.069697 0,0 0.0863584,0.0365906 0.126859,-0.0208819 0.00430709,0.00490158 0.0071693,0.0104055 0.00822442,0.0165118 0.0100315,0.0599647 -0.108083,0.0649489 -0.128815,0.0515158z"/>
    </g>
    <path id="_257342216" class="fil1 str1" d="M1.15375 0.966939c-0.00837403,0.0193071 0.00822049,0.0293386 0.00354331,0.0386182 -0.00475198,0.00935041 -0.0199095,0.00399607 -0.0199095,0.00399607"/>
    <path id="_257343464" class="fil24" d="M1.12871 1.03256c-0.0202874,-0.00558269 -0.0419332,-0.0257166 -0.0419332,-0.0257166 0,0 -0.0104095,0.0318268 0.0125236,0.043819 0.0229252,0.0119921 0.0294095,-0.0181024 0.0294095,-0.0181024z"/>
   </g>
   <path id="_257342048" class="fil9" d="M3.0628 1.52085c-0.0153859,0.0242126 -0.145571,0.0581537 -0.226953,0.077386 -0.0381654,0.00897639 -0.065697,0.0147087 -0.065697,0.0147087l-0.00249213 -0.0943545 0.0154646 -0.013126 0.120378 -0.102122 -0.00264174 -0.00610631 -0.00022441 -0.00030315 -0.00724017 -0.0166693 0.147079 -0.0209685c0.00558269,0.0129725 0.0113858,0.0278308 0.016441,0.0432954 0.0141851,0.043441 0.0224764,0.0920159 0.00588584,0.11826z"/>
   <path id="_257343704" class="fil10" d="M2.83578 1.59816c-0.0381694,0.00898033 -0.0657009,0.0147126 -0.0657009,0.0147126l-0.00248032 -0.0943506 0.0154567 -0.013126c0.0185552,0.0118386 0.042008,0.0662206 0.0527245,0.092764z"/>
   <path id="_257343800" class="fil10" d="M3.05699 1.40251l-0.156048 -0.00542521 -0.000220473 -0.000299213 -0.00724411 -0.0166733 0.147079 -0.0209685c0.00557088,0.0130433 0.011378,0.0279095 0.0164331,0.0433662z"/>
   <path id="_257343512" class="fil1 str2" d="M2.84347 1.02992c-0.0632836,0.0190079 -0.056945,0.0758742 -0.0442757,0.126484 0.0126733,0.0506103 0.0560434,0.177926 0.0560434,0.177926"/>
   <g>
    <rect id="_257344640" class="fil26" x="1.46533" y="1.32913" width="1.23498" height="0.991812"/>
    <rect id="_257344232" class="fil24" x="1.51511" y="1.38119" width="1.13542" height="0.887651"/>
    <rect id="_257344688" class="fil27" x="1.56474" y="1.4363" width="1.03617" height="0.777464"/>
    <path id="_257344448" class="fil28" d="M2.60091 2.20879c-0.077008,0.00950002 -1.03617,0.00452363 -1.03617,0.00452363l0 -0.391981c0,0 0.121733,-0.062071 0.187276,-0.0528702 0.0654647,0.0092008 0.134933,0.0257166 0.162386,0.0343938 0.1995,0.0628269 0.279296,0.0629017 0.34891,-0.0276024 0.0939057,-0.12211 0.115323,0.0708978 0.337599,-0.00022441l0 0.433761z"/>
    <g>
     <g>
      <path id="_257344376" class="fil29" d="M2.47669 2.21339l-0.81284 0c0.002563,-0.00376772 0.00482678,-0.00716143 0.00686222,-0.0100315 0.059134,-0.0850041 0.106575,-0.151902 0.242036,-0.168272 0.135307,-0.016441 0.339028,-0.0104843 0.405548,0.024815 0.0594371,0.031378 0.113516,0.090508 0.158394,0.153488z"/>
      <path id="_257344904" class="fil30" d="M1.92406 1.56671c0,0 -0.00535434,0.0254174 0.0216457,0.0241339 0.0242087,-0.00112992 0.0665277,-0.0782127 0.20289,-0.0331851 0.136362,0.0450237 0.135914,0.169926 0.0960159,0.262926 -0.0399017,0.0929962 -0.0859096,0.149264 -0.0859096,0.149264l-0.272056 -0.205831c-0.078819,-0.0457048 -0.0236851,-0.124146 -0.00859844,-0.126484 7.48033e-005,0 -0.0368032,-0.0794214 0.0460119,-0.070823z"/>
      <path id="_257345408" class="fil31" d="M2.06978 2.13827l0 0c0.0315237,-0.000826773 0.0564174,-0.0271536 0.0555867,-0.0586773l-0.00362205 -0.133201 -0.114268 0.00309056 0.00362205 0.133201c0.000905514,0.0316024 0.0271536,0.0564962 0.0586812,0.0555867z"/>
      <path id="_257344976" class="fil32" d="M2.06835 2.08555l0 0c0.0315276,-0.000834647 0.0564096,-0.0271497 0.0555828,-0.0586891l-0.00362205 -0.133197 -0.114268 0.00309449 0.00361812 0.133197c0.000913388,0.0315276 0.0271575,0.0564174 0.0586891,0.0555946z"/>
      <path id="_257345336" class="fil33" d="M1.88665 1.80271c0.0190079,0.143985 0.081382,0.205906 0.179512,0.203044 0.120603,-0.00354725 0.149264,-0.11517 0.15341,-0.140666 0.00324804,-0.0199095 -0.0100315,-0.089449 -0.031378,-0.059508 -0.00655907,0.0092008 -0.0239843,-0.0862836 -0.0250394,-0.0975238 -0.00128347,-0.0132756 0.0150866,-0.0644135 -0.057319,-0.0420119 -0.0509883,0.0157638 -0.236985,0.0332638 -0.232532,0.026626l0.0133465 0.11004z"/>
      <path id="_257345000" class="fil34" d="M1.92232 1.68029c0.0465355,0.0220985 -0.0162166,0.147 -0.0297166,0.164571 -0.0124449,0.0162166 -0.0510631,-0.0410316 -0.0510631,-0.0410316 0,0 -0.00218504,-0.162985 0.0807797,-0.12354z"/>
      <g>
       <path id="_257345240" class="fil24" d="M2.19068 1.80709c0.0092008,-0.0417127 0.0479725,-0.0527954 0.0708978,-0.0285119 0.0319016,0.0338662 -0.00482678,0.0894529 -0.0316024,0.103555 -0.0266969,0.0141024 -0.0510592,-0.0218701 -0.0392953,-0.0750434z"/>
       <path id="_257345672" class="fil1 str3" d="M2.19717 1.83039c0.0174252,-0.0378662 0.0409568,-0.040504 0.051819,-0.0281339 0.0108622,0.0123701 -0.00301575,0.0259489 -0.00301575,0.0259489"/>
       <path id="_257345432" class="fil1 str4" d="M2.22568 1.79743c0.0214961,-0.00384646 0.0217953,0.0417087 -0.00211418,0.0598111 -0.0238347,0.0180985 -0.0210433,-0.0096575 -0.0210433,-0.0096575"/>
       <path id="_257345552" class="fil1 str5" d="M2.21308 1.80618c0.0162166,0.00143307 0.0233071,0.0327363 0.0205158,0.0410355"/>
      </g>
      <g>
       <path id="_257345696" class="fil24" d="M1.90995 1.82518c-0.0092008,-0.0417087 -0.0479686,-0.0527954 -0.0708978,-0.0285079 -0.0319016,0.0338662 0.00482678,0.0894529 0.0316024,0.103555 0.0267796,0.0141063 0.051067,-0.0218741 0.0392953,-0.0750474z"/>
       <path id="_257346320" class="fil1 str3" d="M1.90354 1.84857c-0.0174213,-0.0378623 -0.0409528,-0.040504 -0.0518151,-0.0281339 -0.0108622,0.0123701 0.00301575,0.0259489 0.00301575,0.0259489"/>
       <path id="_257346176" class="fil1 str4" d="M1.87496 1.81553c-0.0214961,-0.00384646 -0.0217953,0.0417127 0.00211418,0.0598111 0.0238308,0.0181024 0.0210394,-0.00965356 0.0210394,-0.00965356"/>
       <path id="_257346152" class="fil1 str5" d="M1.88755 1.82428c-0.0162126,0.00143307 -0.0233071,0.0327323 -0.0205158,0.0410316"/>
      </g>
      <path id="_257346008" class="fil22" d="M2.00009 1.75444c-0.0221772,-0.00407087 -0.0436733,0.00874805 -0.044882,0.0208937 -0.00120473,0.0120709 0.0828151,-0.0140315 0.044882,-0.0208937z"/>
      <path id="_257345840" class="fil22" d="M2.08629 1.74924c0.0194607,-0.0111614 0.0443505,0.00384646 0.0493269,0.0141024 0.00497639,0.0101851 -0.0795671,0.0032441 -0.0493269,-0.0141024z"/>
      <path id="_257346056" class="fil22" d="M2.08991 1.79479c0.00135433,0.0064882 0.00777167,0.0106339 0.0143307,0.00927955 0.006563,-0.00135827 0.0107087,-0.00777167 0.00935435,-0.0142559 -0.00135433,-0.00648426 -0.00776773,-0.0106339 -0.0143307,-0.00927955 -0.00656694,0.00135827 -0.0107126,0.00776773 -0.00935435,0.0142559z"/>
      <path id="_257346248" class="fil22" d="M1.98009 1.79848c0.00135433,0.0064882 0.00776773,0.0106339 0.0143307,0.00927955 0.006563,-0.00135433 0.0107087,-0.00777167 0.00935435,-0.0142559 -0.00135433,-0.00648426 -0.00777167,-0.0106339 -0.0143307,-0.00927561 -0.006563,0.00135433 -0.0107087,0.00776773 -0.00935435,0.014252z"/>
      <path id="_257347208" class="fil1 str6" d="M2.06246 1.7963c-0.0155394,0.0345434 0.0254174,0.0568741 0.0162914,0.0734647 -0.009126,0.0165945 -0.0457796,0.00339371 -0.0457796,0.00339371"/>
      <path id="_257346992" class="fil35" d="M2.0074 1.90031c0.0153071,0.0107874 0.101973,0.00671655 0.1065,-0.00550788 0,0 -0.00490158,0.0331103 -0.0497836,0.0349213 -0.0329607,0.00128347 -0.0567166,-0.0294134 -0.0567166,-0.0294134z"/>
     </g>
     <circle id="_257344544" class="fil24" cx="2.39938" cy="1.70926" r="0.048797"/>
    </g>
   </g>
   <path id="_257344424" class="fil9" d="M2.78079 1.52892c-0.0141024,-0.0224016 -0.00724017,-0.0440473 -0.0205158,-0.0543781 -0.0132008,-0.0103347 -0.0352953,-0.00543308 -0.0427639,-0.0129725 -0.00746852,-0.00753938 -0.0171969,0.0119921 0.00731497,0.0294174 0.0245119,0.0174213 0.0141772,0.0406536 0.0141772,0.0406536l0.0417875 -0.00272048z"/>
   <path id="_257344496" class="fil9" d="M2.78208 1.61294c0.0177244,-0.0162953 0.0119173,-0.0250434 0.006563,-0.0372599 -0.00535434,-0.0122166 -0.00414568,-0.0332638 -0.0116181,-0.0408032 -0.00746852,-0.00753938 -0.0027126,-0.0342402 -0.0159134,-0.0377875 -0.013126,-0.00354331 -0.0459332,-0.00180709 -0.0745198,-0.00309056 -0.0285867,-0.00128347 -0.0491733,-0.0118425 -0.0497796,-0.00158662 -0.000531497,0.0102559 0.0145551,0.0241339 0.0460867,0.0297166 0,0 -0.0537796,-0.0144055 -0.0579292,-0.00512993 -0.00414568,0.00927955 0.0153111,0.0289646 0.0460867,0.034319 0,0 -0.0426143,-0.0112402 -0.0431418,-0.00128347 -0.00052756,0.00995671 0.0184016,0.0307717 0.0626773,0.0347717 0,0 -0.0184016,-0.00135433 -0.026626,0.00422442 -0.0112402,0.00761419 0.0378623,0.0315237 0.0700671,0.0334095 0.0322835,0.00188977 0.0480473,-0.00950002 0.0480473,-0.00950002z"/>
   <path id="_257346872" class="fil15" d="M1.26877 1.82533c-0.0427639,0.0506103 -0.506095,0.0380867 -0.519218,0 -0.00852364,-0.0247402 0.00233859,-0.0593584 0.00829529,-0.10763 0.0031693,-0.0260945 0.00505119,-0.0561891 0.00158268,-0.0908112 -0.00573229,-0.057697 -0.022626,-0.188485 -0.0325079,-0.29506 -0.00694096,-0.0754962 -0.0104095,-0.138855 -0.00407087,-0.15537 0.0106339,-0.0270788 0.0674293,-0.0675041 0.135685,-0.0921695 0.0239095,0.0757994 0.139457,0.223028 0.161335,0.311953 0.0218701,0.0889962 0.168272,0.09126 0.173626,-0.0298701 0.00482284,-0.107555 0.010937,-0.24128 -0.00694096,-0.29619 0.0222481,0.012067 0.038693,0.0319016 0.0461576,0.0636576 0.0263268,0.111402 -0.00655907,0.273032 0.0033189,0.353209 0.00973624,0.0801065 0.0753505,0.287745 0.0327363,0.33828z"/>
   <path id="_257346728" class="fil16" d="M1.0738 1.80987c-0.128898,0.00369292 -0.216615,-0.0188544 -0.268126,-0.0423898 -0.0141142,-0.00640552 -0.0308583,-0.0254134 -0.0477521,-0.0497757 0.00317323,-0.0260945 0.005063,-0.0561891 0.00158662,-0.0908191 -0.00572442,-0.0576851 -0.0226182,-0.188469 -0.0325119,-0.295048l0.0308544 -0.0287363 0.167138 0.266548 0.148811 0.240221z"/>
   <path id="_257347112" class="fil9" d="M1.49663 1.75376c0.00158662,0.0104095 -0.0328111,0.0328859 -0.0641104,0.0388426 -0.026626,0.00505119 -0.0595828,-0.00965356 -0.0890002,-0.0122953 -0.00535434,-0.000374016 -0.0104095,-0.000452757 -0.0154607,0 -0.0328859,0.0033189 -0.129878,-0.0116142 -0.129878,-0.0116142l0.0946577 -0.0899057c0.00648426,0.00180709 0.0141772,-0.00279134 0.0221772,-0.0101851l0 -7.48033e-005c0.0128977,-0.0119921 0.0261693,-0.0314489 0.0353701,-0.0415591 0.0148583,-0.016441 0.0428426,-0.00022441 0.0686379,-0.00746852 0.0257953,-0.00731497 0.0084449,0.029563 -0.0144095,0.0297166 -0.0229292,7.87403e-005 -0.0318268,0.0134252 -0.0318268,0.0134252 0,0 0.0880238,-0.0177992 0.102878,-0.020815 0.0150079,-0.00301575 0.0194607,0.0106299 0.0134252,0.0209685 -7.87403e-005,7.48033e-005 -7.87403e-005,0.00022441 -0.00022441,0.000299213 0.00731497,-0.00286615 0.0139528,-0.00407087 0.0166693,-0.000299213 0.00520473,0.00724017 -0.00422442,0.0285079 -0.0140315,0.0421615 0.00784647,-0.00211418 0.0141024,-0.00211418 0.0154646,0.00218898 0.00452363,0.0137244 -0.0208937,0.0390709 -0.0328111,0.0465316 -0.0118465,0.00762206 0.0210394,-0.0103268 0.0224725,8.26773e-005z"/>
   <path id="_257347712" class="fil10" d="M1.34352 1.78039c-0.00535434,-0.00038189 -0.0104055,-0.000464568 -0.0154685,0 -0.0328741,0.00330709 -0.12987,-0.0116221 -0.12987,-0.0116221l0.0946577 -0.0899057c0.0064882,0.00181103 0.0141811,-0.00278741 0.0221772,-0.0101811 -0.0032441,0.0374135 0.01863,0.0901301 0.028504,0.111709z"/>
   <path id="_257347832" class="fil11" d="M0.737793 1.1638c0.0530237,-0.0280591 0.0880986,-0.0326575 0.143607,0.0457009 0.0555119,0.0783624 0.133803,0.364827 0.133803,0.364827 0,0 0.267528,0.0822128 0.283894,0.09526 0.0162953,0.0130473 -0.0293386,0.130484 -0.0554332,0.140288 -0.0260945,0.00980711 -0.137048,0.0293386 -0.169705,0 -0.0326575,-0.0293426 -0.159894,-0.0423898 -0.202284,-0.0750474 -0.0423859,-0.0326575 -0.244835,-0.512277 -0.133882,-0.571029z"/>
   <path id="_257347256" class="fil15" d="M1.24954 0.81745c0,0 -0.0350709,0.103929 -0.190296,0.0614726l-0.165555 0.0395237c0,0 -0.0208189,-0.037941 -0.00829529,-0.0890002 0.00331497,-0.0139528 0.0092008,-0.0288859 0.0185552,-0.0442717 0.0439725,-0.0717285 0.09526,-0.087945 0.178681,-0.0864372 0.0585277,0.00105512 0.101898,0.0331103 0.133197,0.0702954 0.0133504,0.0158307 0.0245119,0.0326536 0.0337127,0.0484174z"/>
   <path id="_257347304" class="fil1 str7" d="M0.924844 0.908939c0,0 -0.00603151,-0.137347 0.078819,-0.202965 0,0 0.0837206,0.0180237 0.102878,0.164496"/>
   <path id="_257347784" class="fil16" d="M1.24954 0.817454c0,0 -0.035067,0.103929 -0.190288,0.0614686l-0.165559 0.0395276c0,0 -0.0208229,-0.037941 -0.00829529,-0.0890041 0.0617009,-0.0182481 0.217674,0.00822049 0.330434,-0.0604135 0.0133544,0.0158268 0.0245079,0.0326536 0.0337087,0.0484214z"/>
   <path id="_257347880" class="fil1 str1" d="M2.77378 1.51324c0.0117638,0.0133465 0.0104843,0.0241339 0.00701576,0.0336379 -0.00346851,0.00950395 0.00980711,0.0181811 0.00777167,0.0287363 -0.00203937,0.0106339 0.0135748,0.0196851 -0.006563,0.037256"/>
   <path id="_257347952" class="fil1 str1" d="M2.66374 1.51708c0.0191575,0.00505119 0.040504,0.00452363 0.040504,0.00452363"/>
   <path id="_257347616" class="fil1 str1" d="M2.65785 1.54838c0.0273032,0.00799608 0.0513662,0.0032441 0.0513662,0.0032441"/>
   <path id="_257348096" class="fil1 str1" d="M2.68395 1.58466c0.0161378,0.00505513 0.0284331,0.00844883 0.0284331,0.00844883"/>
   <path id="_257348192" class="fil1 str1" d="M2.90351 1.40319c0.0252638,-0.000598426 0.0515119,0.0150118 0.0515119,0.0150118"/>
   <path id="_257348120" class="fil25" d="M2.82669 1.77908c0.016563,0.0708072 0.0370355,0.203099 0.0576143,0.336107 0.0168032,0.10861 0.0336851,0.217729 0.0486182,0.294359 0.0330119,0.169429 0.11261,0.611667 0.112835,0.612934l-0.00739765 0.00132677c-0.00022441,-0.00126378 -0.0796261,-0.442426 -0.112835,-0.612848 -0.0148701,-0.076319 -0.0317993,-0.185729 -0.0486458,-0.29463 -0.0205473,-0.132776 -0.0409804,-0.264835 -0.0575159,-0.33554l0.00732679 -0.00170866z"/>
   <path id="_257348360" class="fil15" d="M1.05917 0.878994c0.0454017,0.0292638 0.133272,0.0439725 0.216768,0.0116929 0.0834962,-0.0322048 0.0365788,-0.0644135 -0.0264016,-0.0732364 3.93702e-006,0 -0.0936695,0.0717285 -0.190367,0.0615434z"/>
   <path id="_257348168" class="fil1 str7" d="M1.24954 0.81745c-0.0681812,0.038693 -0.124977,0.0630552 -0.190367,0.0615434"/>
   <path id="_257348480" class="fil1 str7" d="M1.01513 1.57425c-0.069693,0.0249646 -0.0779923,0.0681064 -0.0779923,0.0681064"/>
   <path id="_257348504" class="fil1 str1" d="M1.48916 1.66287c-0.0283583,0.0162953 -0.0518899,0.0205197 -0.0518899,0.0205197"/>
   <path id="_257348720" class="fil1 str1" d="M1.48916 1.70579c-0.00897639,0.0107087 -0.043819,0.0180276 -0.043819,0.0180276"/>
   <path id="_257349296" class="fil1 str1" d="M1.47423 1.75383c-0.0107087,0.00844883 -0.0349174,0.013878 -0.0369568,0.0136536"/>
   <path id="_257349224" class="fil1 str8" d="M1.36961 1.44218c0.0168189,0.0538505 0.00829529,0.0893781 0.00829529,0.0893781"/>
   <path id="_257348960" class="fil36" d="M0.781163 1.83639c0.130071,0.0414568 0.398485,0.0109292 0.399257,0.0108465l0.000822836 0.00748427c-0.000779529,8.66143e-005 -0.270705,0.0307875 -0.402351,-0.0111732l0.00227166 -0.00715749z"/>
   <polygon id="_257349320" class="fil36" points="1.12128,1.86519 1.14489,2.03723 1.14434,2.03972 1.10897,2.09621 1.10209,2.09489 1.05969,1.861 1.06709,1.85967 1.10775,2.084 1.13725,2.0369 1.11382,1.86619 "/>
   <polygon id="_257349008" class="fil36" points="1.10949,2.09356 1.12457,2.1775 1.11717,2.17883 1.10209,2.09489 "/>
   <polygon id="_257349248" class="fil36" points="0.919167,1.86281 0.869986,1.9193 0.864297,1.91435 0.913478,1.85787 "/>
   <path id="_257349272" class="fil36" d="M0.870911 1.85091c0,0.0340788 0.00681497,0.15204 0.0132638,0.263788 0.00605119,0.104823 0.0117914,0.204213 0.011311,0.224146l-5.51182e-005 0.00198426 -0.00165355 0.00107481 -0.172268 0.111701 -0.0040945 -0.00629922 0.170583 -0.11061c9.84254e-005,-0.0234961 -0.00546851,-0.119984 -0.0113347,-0.221587 -0.00646064,-0.111988 -0.0132914,-0.230209 -0.0132914,-0.264197l0.00753938 0z"/>
   <path id="_257349416" class="fil16" d="M1.06339 2.58123c-0.0799529,0.0517403 -0.358418,0.0850828 -0.358418,0.0850828l0 -0.242414c0,0 0.119024,-0.0544489 0.119024,-0.079571 0,-7.87403e-005 0.085012,0.179433 0.239394,0.236902z"/>
   <path id="_257349872" class="fil36" d="M1.12397 2.13405c0.0429686,0.0632206 0.128725,0.193729 0.209229,0.318847 0.0645552,0.100323 0.125835,0.197335 0.159201,0.253733 0.0751576,0.127059 0.15524,0.330831 0.155473,0.331414l-0.00698033 0.00276772c-0.000228347,-0.000582678 -0.0800553,-0.203697 -0.154977,-0.330355 -0.0333583,-0.0563899 -0.094575,-0.1533 -0.159048,-0.253497 -0.0806852,-0.125406 -0.166382,-0.255835 -0.209111,-0.318697l0.00621261 -0.00421261z"/>
   <g>
    <polyline id="_257350016" class="fil1 str9" points="3.23733,0.249359 3.41368,0.0443544 3.57681,0.249359 "/>
    <path id="_257350112" class="fil37" d="M3.69719 1.00563l-0.566883 0c-0.0170473,0 -0.0307717,-0.0138032 -0.0307717,-0.0307717l0 -0.718037c0,-0.0170473 0.0137992,-0.0307756 0.0307717,-0.0307756l0.566883 0c0.0170473,0 0.0307717,0.0138032 0.0307717,0.0307756l0 0.717954c0,0.0170512 -0.0137992,0.0308544 -0.0307717,0.0308544z"/>
    <rect id="_257349776" class="fil38" x="3.15045" y="0.283088" width="0.526532" height="0.665459"/>
    <rect id="_257349608" class="fil39" x="3.17292" y="0.304964" width="0.481496" height="0.621711"/>
    <path id="_257349632" class="fil37" d="M3.45802 0.0443544c0,0.0245079 -0.0198386,0.0443465 -0.0443465,0.0443465 -0.0245119,0 -0.0443505,-0.0198386 -0.0443505,-0.0443465 0,-0.0245119 0.0198386,-0.0443505 0.0443505,-0.0443505 0.0245079,0 0.0443465,0.0198386 0.0443465,0.0443505z"/>
    <path id="_257349728" class="fil40" d="M3.27218 0.3993c0.038693,-0.0326575 0.057697,-0.0300197 0.0876419,-0.0092008 0.0299489,0.020815 -0.0092008,0.10152 -0.043819,0.13154 -0.0346182,0.0300158 -0.0899805,0.0112362 -0.10152,-0.0267008 -0.0115394,-0.037941 0.0354489,-0.0768584 0.057697,-0.095638z"/>
    <path id="_257350712" class="fil41" d="M3.34934 0.436178c0.0594371,-0.0342402 0.0876458,-0.050756 0.143079,-0.0253386 0.0553584,0.0253386 0.057697,0.15228 0.036882,0.24226 -0.0207402,0.0899844 -0.13878,0.223784 -0.215937,0.117662 -0.0770828,-0.106197 -0.0322048,-0.295359 0.0359764,-0.334583z"/>
    <path id="_257350784" class="fil19" d="M3.51964 0.733875c0.0385394,-0.0406536 0.0756497,-0.00693702 0.0364292,0.0507599 -0.0392166,0.057697 -0.0761025,0.0507599 -0.0945829,0.0184764 -0.0185512,-0.0323505 0.044504,-0.0549056 0.0581537,-0.0692364z"/>
    <polygon id="_257350832" class="fil42" points="3.6769,0.330284 3.6769,0.441694 3.15045,0.726265 3.15045,0.614261 "/>
    <polygon id="_257350736" class="fil42" points="3.6769,0.511532 3.6769,0.62308 3.15045,0.907431 3.15045,0.795576 "/>
   </g>
   <g>
    <path id="_257350952" class="fil43" d="M0.176489 2.60612c0.0220985,-0.176489 -0.176492,-0.371914 -0.176492,-0.371914 0,0 0.0315276,0.337221 0.176492,0.371914z"/>
    <path id="_257350976" class="fil43" d="M0.189764 2.64217c0.130862,-0.220615 0.0712718,-0.782297 -0.0408032,-0.947395 0,0 -0.08176,0.280725 -0.0490277,0.553458 0.032882,0.272658 0.0898309,0.393938 0.0898309,0.393938z"/>
    <path id="_257350328" class="fil43" d="M0.225591 2.64217c-0.0408072,-0.27869 0.119921,-0.668407 0.148355,-0.686356 0.0283583,-0.017878 0.0227796,0.275221 -0.0279804,0.454879 -0.0508347,0.179662 -0.120374,0.231477 -0.120374,0.231477z"/>
    <path id="_257350424" class="fil43" d="M0.249347 2.60567c0.016441,-0.167366 0.186973,-0.291363 0.21013,-0.288193 0.0231536,0.00316536 -0.0493269,0.242335 -0.21013,0.288193z"/>
    <path id="_257351264" class="fil44" d="M0.200926 2.62204c0.0123701,-0.0987325 -0.0987285,-0.207945 -0.0987285,-0.207945 0,0 0.0176457,0.188563 0.0987285,0.207945z"/>
    <path id="_257351336" class="fil44" d="M0.208319 2.64217c0.0731576,-0.123394 0.0398229,-0.437461 -0.0227796,-0.529777 0,0 -0.0457048,0.156957 -0.027378,0.309465 0.0183268,0.152504 0.0501576,0.220311 0.0501576,0.220311z"/>
    <path id="_257351360" class="fil44" d="M0.228382 2.64217c-0.0227796,-0.155902 0.0670513,-0.3738 0.0829647,-0.383831 0.0158386,-0.0100315 0.0127481,0.153937 -0.0156851,0.254402 -0.028441,0.100465 -0.0672797,0.129429 -0.0672797,0.129429z"/>
    <path id="_257319416" class="fil44" d="M0.241654 2.62173c0.0092008,-0.0935986 0.104536,-0.162918 0.117508,-0.161181 0.0128977,0.00181496 -0.0276024,0.13554 -0.117508,0.161181z"/>
    <polygon id="_257318888" class="fil41" points="0.356599,2.57278 0.317757,3.10777 0.308256,3.2396 0.129799,3.2396 0.113583,3.0153 0.0814568,2.57278 "/>
    <line id="_257319368" class="fil1 str10" x1="0.102197" y1="2.64217" x2="0.228382" y2= "2.64217" />
    <polygon id="_257319560" class="fil16" points="0.31776,3.10776 0.30826,3.2396 0.129792,3.2396 0.113579,3.0153 "/>
   </g>
   <rect id="_257350304" class="fil6" x="3.31261" y="1.1819" width="0.202135" height="0.0638744"/>
   <rect id="_257319128" class="fil6" x="2.36928" y="0.270559" width="0.202135" height="0.0638744"/>
   <rect id="_257319272" class="fil6" x="2.5144" y="0.388297" width="0.202135" height="0.0638744"/>
  </g>
 </g>
</svg>
